<svg xmlns="http://www.w3.org/2000/svg" viewBox="0 0 436.39 158.63"><defs><style>.cls-1{fill:#fff;}</style></defs><g id="Layer_2" data-name="Layer 2"><g id="Layer_1-2" data-name="Layer 1"><path class="cls-1" d="M91.41,48.29c9,4.54,17.42,8.87,25.93,12.92,2.8,1.33,3.84,2.95,3.8,6.07q-.24,22.74,0,45.49c0,3-.82,4.34-3.82,5.15-15.23,4.1-29.63,9.89-41.54,20.82-1.18,1.08-4.36.7-6.35.11-17.14-5.09-34.53-7.09-52.31-4.49C12.9,135,8.75,136,4.05,137a34.94,34.94,0,0,1,12.11-23.51c2.62-2.36,3.22-4.84,3.7-8.14C21.56,93.69,18,84.71,8.17,78.05,4.9,75.85,2.26,72.71,0,70.61,5.18,64.87,10,59,15.41,53.69c3.09-3,4.71-6,4.37-10.42-.51-6.63-.4-13.3-.82-19.94-.2-3.08-1.34-6.75-4.92-6.27-2.3.31-5.23,3.05-6.1,5.36C6.1,27.32,5.43,32.66,4.19,38.18H.31C-1.93,20.69,8.13,5.78,23.56,3.56c18.45-2.66,30,6.52,33,27.51L91.83,0l22.86,27.62ZM62.89,33.09c-3.69,2-6.14,4-6.09,8.67.22,19,.09,37.92.1,56.87,0,1.45.19,2.89.31,4.5h5.68Zm6,39.68c0,10.57,0,20.29.07,30a2.87,2.87,0,0,0,1.4,2.24c3.37,1,6.82,1.82,10.65,2.79,0-9.36,0-18-.06-26.59a3.83,3.83,0,0,0-1.33-2.86C76.44,76.47,73,74.86,68.94,72.77Zm.26-40.64v29l13.88-12C78.56,43.59,74.3,38.37,69.2,32.13ZM19.32,57,12,63.48l7.28,6.29Z"/><path class="cls-1" d="M353,59.63l-5.56,5.05-3.34-3.5,25.62-29c7.07,9,16.42,15.53,21.35,26.4l24.11-26.56c10.33,8.64,18.25,18.43,20.17,31.85,2.33,16.27,1.62,32.07-10.12,45.16-8.15,9.08-19,13.49-30.72,15.07-10,1.36-20.21,1.59-30.33,2.2-6.14.37-9.64,3-10.36,8C352.73,141.89,356.49,147,364,146c5.5-.7,11.05-3.25,15.94-6.07,8.22-4.76,15.92-10.39,25.81-11.19,7-.55,13.59.22,19.57,4.29,6.19,4.21,8.9,11.33,6.85,19.77a20.45,20.45,0,0,1-2-2.8c-2.85-6.19-6.56-7.45-12.83-4.29s-12.5,7.15-19.19,9.46c-12.58,4.34-25.49,5.32-37.76-1.31-14.87-8-17.73-23.3-7.29-36.53A9.32,9.32,0,0,0,355,112q.22-22.49,0-45C355,64.87,353.87,62.77,353,59.63Zm44.22.71c-5.45,3.83-7.66,7.19-7.45,12.55.42,10.45.12,20.92.12,31.39v14.78c5.75.19,9.21-1.7,9.89-7.44a228.37,228.37,0,0,0,1.62-32.12C401.23,73.41,398.81,67.37,397.19,60.34Z"/><path class="cls-1" d="M154.36,32.16c7.34,8,14.47,15.68,21.45,23.48,1.48,1.65,2.55,3.65-.93,4.84-.91.31-1.84,2.1-1.85,3.22-.12,14.49-.15,29,0,43.47,0,1.62,1.28,3.22,2.24,5.48,6.22-6.39,11-11.68,10.14-20.56-.87-9.24-.16-18.63-.24-28,0-1.2-.31-3.27-.93-3.46-5.54-1.69-2.58-4.14-.62-6.29,6.7-7.35,13.49-14.62,20.22-21.88C214.69,41.06,227,56,226.64,60.16l-6.66.43c.45,16.7-.77,33.36.71,50l1.76.22,4.28-4.56,3.67,3.09c-8,9.83-15.79,19.43-24.16,29.73-6.65-10.43-19-15.53-22-28.79l-21.6,28c-7.89-5.77-15.6-11.21-23-17-1.2-.94-1.54-3.52-1.55-5.34-.12-16.16,0-32.31-.15-48.46,0-2.37-1-4.73-1.78-8.05l-5.28,4.75c-2.07-1.29-4.18-2.46-1.63-5.19C137.53,50.09,145.84,41.26,154.36,32.16Z"/><path class="cls-1" d="M233.9,10.06c10.26-1.53,19.12.19,25.32,10.1,3-6.26,6.78-11.21,13.4-12.07,3.93-.51,8,.24,12.18,1.07-6.28,4.15-7.59,10.25-7.63,16.47-.19,28.15-.1,56.3-.09,84.45a16.93,16.93,0,0,0,.63,2.72l5.75-6.52,3.78,3L264,138.72c-9-4.63-28.55-23.14-28.66-27.42l6.48-.9c.1-1.28.31-2.56.31-3.84,0-26.49-.07-53,0-79.46C242.14,20.09,241,13.79,233.9,10.06Z"/><path class="cls-1" d="M289.2,10.16c10.42-1.69,19.18,0,25.41,9.81,5.7-11,13.93-15,26.32-10.4-6.61,3.8-8.06,9.59-8.06,16q-.06,41.75-.05,83.5c0,.93.19,1.86.4,3.78l5.69-6.31c2,1,4.58,1.77,2.21,4.81-7.14,9.18-14.39,18.29-21.53,27.34-9.08-4.42-28.67-23.31-28.37-27.44l6-.78c.27-.55.52-.83.52-1.12,0-28,.1-56,0-84C297.76,19,296.07,13.16,289.2,10.16Z"/></g></g></svg>